<svg width="324" height="140" viewBox="0 0 324 140" fill="none" xmlns="http://www.w3.org/2000/svg">
<g clip-path="url(#clip0_290_349)">
<path d="M0 140H350.27" stroke="#00647D" stroke-width="0.5"/>
<path d="M0 69.8251H350.27" stroke="#00647D" stroke-width="0.5"/>
<path d="M0 -0.240814H350.27" stroke="#00647D" stroke-width="0.5"/>
<path d="M-205.999 -76.5256L-1.25906e-05 279.999L-205.999 -76.5256ZM-124.967 -76.5256L81.0315 279.999L-124.967 -76.5256ZM-43.9377 -76.5256L162.061 279.999L-43.9377 -76.5256ZM37.0938 -76.5256L243.093 279.999L37.0938 -76.5256ZM118.123 -76.5256L324.122 279.999L118.123 -76.5256ZM199.155 -76.5256L405.154 279.999L199.155 -76.5256ZM280.185 -76.5256L486.183 279.999L280.185 -76.5256ZM43.9377 -76.5256L-162.061 279.999L43.9377 -76.5256ZM124.967 -76.5256L-81.0315 279.999L124.967 -76.5256ZM205.999 -76.5256L-1.25906e-05 279.999L205.999 -76.5256ZM287.028 -76.5256L81.0315 279.999L287.028 -76.5256ZM368.06 -76.5256L162.061 279.999L368.06 -76.5256ZM449.09 -76.5256L243.093 279.999L449.09 -76.5256ZM530.121 -76.5256L324.122 279.999L530.121 -76.5256Z" stroke="#00647D" stroke-width="0.5"/>
<path d="M0 140L40.5673 116.945L81.0306 140" stroke="#00647D" stroke-width="0.5" stroke-linejoin="round"/>
<path d="M81.0306 140L121.598 116.945L162.061 140" stroke="#00647D" stroke-width="0.5" stroke-linejoin="round"/>
<path d="M162.061 140L202.629 116.945L243.092 140" stroke="#00647D" stroke-width="0.5" stroke-linejoin="round"/>
<path d="M243.092 140L283.659 116.945L324.123 140" stroke="#00647D" stroke-width="0.5" stroke-linejoin="round"/>
<path d="M324.122 140L364.69 116.945L405.153 140" stroke="#00647D" stroke-width="0.5" stroke-linejoin="round"/>
<path d="M-40.5153 69.8796L0.0519868 46.8247L40.5153 69.8797" stroke="#00647D" stroke-width="0.5" stroke-linejoin="round"/>
<path d="M40.5154 69.8797L81.0827 46.8247L121.546 69.8797" stroke="#00647D" stroke-width="0.5" stroke-linejoin="round"/>
<path d="M121.546 69.8797L162.113 46.8248L202.577 69.8797" stroke="#00647D" stroke-width="0.5" stroke-linejoin="round"/>
<path d="M202.577 69.8797L243.144 46.8248L283.607 69.8798" stroke="#00647D" stroke-width="0.5" stroke-linejoin="round"/>
<path d="M283.607 69.8798L324.174 46.8248L364.638 69.8798" stroke="#00647D" stroke-width="0.5" stroke-linejoin="round"/>
<path d="M81.0306 140L40.4633 163.055L0 140" stroke="#00647D" stroke-width="0.5" stroke-linejoin="round"/>
<path d="M162.061 140L121.494 163.055L81.0306 140" stroke="#00647D" stroke-width="0.5" stroke-linejoin="round"/>
<path d="M243.092 140L202.525 163.055L162.061 140" stroke="#00647D" stroke-width="0.5" stroke-linejoin="round"/>
<path d="M324.122 140L283.555 163.055L243.092 140" stroke="#00647D" stroke-width="0.5" stroke-linejoin="round"/>
<path d="M405.153 140L364.586 163.055L324.122 140" stroke="#00647D" stroke-width="0.5" stroke-linejoin="round"/>
<path d="M40.5153 69.8797L-0.051981 92.9346L-40.5153 69.8796" stroke="#00647D" stroke-width="0.5" stroke-linejoin="round"/>
<path d="M121.546 69.8797L80.9787 92.9346L40.5154 69.8797" stroke="#00647D" stroke-width="0.5" stroke-linejoin="round"/>
<path d="M202.577 69.8797L162.009 92.9346L121.546 69.8797" stroke="#00647D" stroke-width="0.5" stroke-linejoin="round"/>
<path d="M283.607 69.8798L243.04 92.9347L202.577 69.8797" stroke="#00647D" stroke-width="0.5" stroke-linejoin="round"/>
<path d="M364.638 69.8798L324.07 92.9347L283.607 69.8798" stroke="#00647D" stroke-width="0.5" stroke-linejoin="round"/>
<path d="M81.0306 -0.240814L40.4634 22.8141L3.05176e-05 -0.240814" stroke="#00647D" stroke-width="0.5" stroke-linejoin="round"/>
<path d="M162.061 -0.240761L121.494 22.8142L81.0306 -0.240814" stroke="#00647D" stroke-width="0.5" stroke-linejoin="round"/>
<path d="M243.092 -0.2407L202.525 22.8142L162.061 -0.240753" stroke="#00647D" stroke-width="0.5" stroke-linejoin="round"/>
<path d="M324.123 -0.240692L283.555 22.8143L243.092 -0.240692" stroke="#00647D" stroke-width="0.5" stroke-linejoin="round"/>
<path d="M405.153 -0.240639L364.586 22.8143L324.122 -0.240692" stroke="#00647D" stroke-width="0.5" stroke-linejoin="round"/>
<path d="M40.5673 116.703L40.4634 22.8141" stroke="#00647D" stroke-width="0.5"/>
<path d="M121.598 116.945L121.494 23.0565" stroke="#00647D" stroke-width="0.5"/>
<path d="M202.629 116.945L202.525 23.0565" stroke="#00647D" stroke-width="0.5"/>
<path d="M283.659 116.945L283.555 23.0566" stroke="#00647D" stroke-width="0.5"/>
<path d="M81.0826 46.5824L80.9787 -47.3063" stroke="#00647D" stroke-width="0.5"/>
<path d="M162.113 46.5824L162.009 -47.3062" stroke="#00647D" stroke-width="0.5"/>
<path d="M243.144 46.5824L243.04 -47.3062" stroke="#00647D" stroke-width="0.5"/>
<path d="M324.174 46.5825L324.07 -47.3062" stroke="#00647D" stroke-width="0.5"/>
<path d="M81.0826 186.823L80.9787 92.9346" stroke="#00647D" stroke-width="0.5"/>
<path d="M162.113 186.823L162.009 92.9346" stroke="#00647D" stroke-width="0.5"/>
<path d="M243.144 186.823L243.04 92.9346" stroke="#00647D" stroke-width="0.5"/>
<path d="M324.174 186.823L324.07 92.9347" stroke="#00647D" stroke-width="0.5"/>
<path d="M0.0519888 46.5823L-0.0519714 -47.3063" stroke="#00647D" stroke-width="0.5"/>
<path d="M0.0519888 186.823L-0.0519714 92.9345" stroke="#00647D" stroke-width="0.5"/>
</g>
<defs>
<clipPath id="clip0_290_349">
<rect width="324" height="140" fill="white"/>
</clipPath>
</defs>
</svg>
