<?xml version="1.0" standalone="no"?>
<!DOCTYPE svg PUBLIC "-//W3C//DTD SVG 20010904//EN"
 "http://www.w3.org/TR/2001/REC-SVG-20010904/DTD/svg10.dtd">
<svg version="1.0" xmlns="http://www.w3.org/2000/svg"
 width="500.000000pt" height="500.000000pt" viewBox="0 0 500.000000 500.000000"
 preserveAspectRatio="xMidYMid meet">
<metadata>
Created by potrace 1.14, written by Peter Selinger 2001-2017
</metadata>
<g transform="translate(0.000000,500.000000) scale(0.100000,-0.100000)"
fill="#000000" stroke="none">
<path d="M17 4982 c-16 -17 -17 -88 -17 -819 0 -732 1 -802 17 -814 13 -11 90
-14 400 -15 340 0 386 -2 400 -17 15 -14 16 -91 17 -817 0 -736 -1 -801 -17
-817 -15 -15 -55 -17 -400 -17 -310 -1 -387 -4 -400 -15 -16 -12 -17 -82 -17
-816 0 -764 1 -803 18 -818 17 -16 88 -17 813 -17 671 0 798 2 815 14 18 14
19 30 20 400 0 347 2 388 17 403 15 15 84 17 817 17 733 0 802 -2 817 -17 15
-15 17 -57 17 -400 1 -310 4 -387 15 -400 12 -16 81 -17 815 -17 650 1 804 3
819 14 16 12 17 63 17 818 0 754 -1 806 -17 820 -16 13 -72 15 -397 14 -337
-1 -382 1 -400 15 -20 16 -20 27 -20 818 0 728 2 803 17 818 14 15 59 16 400
17 310 1 387 4 400 15 16 12 17 82 17 817 0 716 -2 804 -16 818 -14 14 -102
16 -818 16 -735 0 -805 -1 -817 -17 -11 -13 -14 -90 -15 -400 0 -342 -2 -385
-17 -400 -15 -15 -88 -17 -817 -17 -727 0 -802 2 -817 17 -14 14 -16 59 -17
400 -1 310 -4 387 -15 400 -12 16 -82 17 -816 17 -764 0 -803 -1 -818 -18z
m3300 -1665 c16 -15 17 -84 17 -817 0 -735 -1 -802 -17 -817 -15 -16 -81 -17
-817 -17 -732 0 -802 2 -817 17 -15 15 -17 85 -17 818 0 789 0 802 20 818 18
14 97 16 817 15 730 0 799 -2 814 -17z"/>
</g>
</svg>
